<svg width="17" height="22" viewBox="0 0 17 22" fill="none" xmlns="http://www.w3.org/2000/svg">
<mask id="mask0_40_3434" style="mask-type:luminance" maskUnits="userSpaceOnUse" x="0" y="0" width="17" height="22">
<rect x="0.518555" y="0.116211" width="16.3541" height="21.8054" fill="white"/>
</mask>
<g mask="url(#mask0_40_3434)">
<path fill-rule="evenodd" clip-rule="evenodd" d="M14.0912 11.5598C14.0826 9.99682 14.7896 8.81711 16.2206 7.9483C15.4199 6.80266 14.2104 6.17235 12.6133 6.04884C11.1014 5.92959 9.44898 6.93043 8.84422 6.93043C8.20539 6.93043 6.74034 6.09143 5.59044 6.09143C3.21399 6.12976 0.688477 7.98663 0.688477 11.7642C0.688477 12.8801 0.892902 14.0328 1.30175 15.2225C1.84689 16.7855 3.81449 20.6185 5.86727 20.5546C6.9405 20.529 7.69858 19.7922 9.09549 19.7922C10.4498 19.7922 11.1525 20.5546 12.3493 20.5546C14.4191 20.5248 16.1993 17.041 16.7189 15.4737C13.9421 14.1663 14.0912 11.6407 14.0912 11.5598L14.0912 11.5598ZM11.6802 4.56669C12.8429 3.18681 12.7364 1.93044 12.7023 1.479C11.6759 1.53863 10.4877 2.17746 9.81056 2.96535C9.06526 3.80861 8.62659 4.85203 8.72029 6.02748C9.83186 6.11266 10.8455 5.54197 11.6802 4.56669Z" fill="black"/>
</g>
</svg>
